<?xml version="1.0" encoding="UTF-8" standalone="no"?>
<!-- Generator: Adobe Illustrator 25.4.0, SVG Export Plug-In . SVG Version: 6.00 Build 0)  -->

<svg
   version="1.1"
   id="Layer_1"
   x="0px"
   y="0px"
   viewBox="0 0 1024 1024"
   style="enable-background:new 0 0 1024 1024;"
   xml:space="preserve"
   sodipodi:docname="module.svg"
   inkscape:version="1.2.2 (732a01da63, 2022-12-09)"
   xmlns:inkscape="http://www.inkscape.org/namespaces/inkscape"
   xmlns:sodipodi="http://sodipodi.sourceforge.net/DTD/sodipodi-0.dtd"
   xmlns="http://www.w3.org/2000/svg"
   xmlns:svg="http://www.w3.org/2000/svg"><defs
   id="defs83"><rect
     x="137.12039"
     y="647.86241"
     width="748.50123"
     height="304.43243"
     id="rect1026" /><rect
     x="137.12039"
     y="647.86243"
     width="339.2773"
     height="65.559863"
     id="rect1026-8" /></defs><sodipodi:namedview
   id="namedview81"
   pagecolor="#ffffff"
   bordercolor="#000000"
   borderopacity="0.25"
   inkscape:showpageshadow="2"
   inkscape:pageopacity="0.0"
   inkscape:pagecheckerboard="0"
   inkscape:deskcolor="#d1d1d1"
   showgrid="false"
   inkscape:zoom="0.79492188"
   inkscape:cx="537.7887"
   inkscape:cy="374.25061"
   inkscape:window-width="1920"
   inkscape:window-height="1001"
   inkscape:window-x="-9"
   inkscape:window-y="-9"
   inkscape:window-maximized="1"
   inkscape:current-layer="Layer_1" />
<style
   type="text/css"
   id="style2">
	.st0{fill:#252241;}
	.st1{fill:#322E51;}
	.st2{fill:#517ABD;}
	.st3{fill:#2FA954;}
	.st4{fill:#FABD0D;}
	.st5{fill:#E84436;}
	.st6{fill:#FFFFFF;}
</style>
<g
   id="g8">
	<rect
   x="0.9"
   y="0.5"
   class="st0"
   width="1023"
   height="1023"
   id="rect4" />
	<path
   d="M1024.4,1024H0.4V0h1024V1024z M1.4,1023h1022.1V1H1.4V1023z"
   id="path6" />
</g>
<g
   id="g12"
   transform="translate(-0.40002441)">
	<circle
   class="st1"
   cx="512.40002"
   cy="384.89999"
   r="230.60001"
   id="circle10" />
</g>


<text
   xml:space="preserve"
   id="text1024"
   style="font-size:85.3333px;white-space:pre;shape-inside:url(#rect1026);display:inline;fill:#ffffff;fill-opacity:1"
   transform="matrix(1.3218525,0,0,1.3218525,142.46486,-169.93503)"><tspan
     x="137.12109"
     y="725.71544"
     id="tspan3770">UnSub</tspan></text><text
   xml:space="preserve"
   id="text1024-9"
   style="font-size:56.4864px;white-space:pre;shape-inside:url(#rect1026-8);display:inline;fill:#ffffff;fill-opacity:1"
   transform="matrix(0.67292745,0,0,0.67292745,305.56474,492.45909)"><tspan
     x="137.12109"
     y="699.39754"
     id="tspan3772">by @aarhus</tspan></text><g
   id="g3727"
   transform="matrix(0.59247712,0,0,0.59247712,-36.161032,109.17232)"><path
     style="fill:#ffffff;fill-opacity:1;stroke:none;stroke-width:0.999999"
     d="m 786.8261,462.59443 v 99 c 0,16.69599 -1.697,34.42402 0.28498,51 5.57499,46.61201 35.33598,87.51599 80.71499,102.64498 19.05898,6.35403 38.164,6.35501 57.99998,6.35501 30.07102,0 58.17801,-4.88099 82.99995,-23.15599 35.794,-26.35298 49,-66.03999 49,-108.84401 0,-27.646 7.701,-67.955 -17.001,-87.482 -11.508,-9.09699 -27.944,-12.27697 -41.99896,-7.772 -4.86497,1.55902 -11.73498,7.82903 -16.57598,7.68401 -5.16499,-0.15496 -12.031,-6.482 -17.424,-8.00198 -9.428,-2.65701 -19.90901,-1.88901 -29.00002,1.641 -4.03098,1.56499 -8.64,6.244 -12.99999,6.244 -5.19998,0 -11.838,-5.919 -16.99997,-7.56703 -9.59101,-3.06198 -19.381,-1.73 -29.00001,0.25399 0,-6.59501 -3.24201,-25.58801 1.60301,-30.39602 3.58798,-3.55998 18.31997,-0.60401 23.39697,-0.60401 h 66.99999 c 63.79896,0 136.46496,10.62803 182.56096,-43.99997 7.682,-9.103 14.169,-19.16501 19.13,-30 30.544,-66.707 -3.883,-149.216 -73.691,-172.9969 -29.418,-10.0216 -61.387,-7.00305 -92,-7.00305 H 853.82605 c -50.05901,0 -99.11308,-4.06207 -140.00001,30.4391 -11.10588,9.3713 -20.36806,20.97321 -27.57249,33.56089 -45.40779,79.33699 9.86219,181.84099 100.57252,188.99998 m 90,-29.00001 c -3.07401,-14.85298 -11.07103,-27.65798 -25.00003,-34.62297 -26.26499,-13.13401 -60.02899,4.27797 -63.99999,33.62298 -12.15401,-0.96098 -24.10329,-4.307 -35.00001,-9.759 -67.28417,-33.66399 -70.45939,-132.94105 -4.99997,-170.36828 31.84497,-18.2081 70.75298,-12.87269 105.99998,-12.87269 68.77902,0 138.295,-2.96939 206.99995,0.0393 11.493,0.50329 23.565,3.49108 34,8.26927 66.998,30.67673 76.289,124.07628 17,167.53628 -27.291,20.005 -58.925,18.155 -91,18.155 H 876.82607 m -46.00003,-96.99988 c 9.59101,11.25302 17.601,34.03703 31.004,40.82102 7.446,3.76898 16.12403,-0.906 17.65602,-8.82101 3.03099,-15.66599 -0.58299,-33.22499 -0.659,-48.99998 -0.0378,-7.46601 1.90798,-17.99889 -1.01,-24.98459 -3.301,-7.89971 -14.34301,-8.74723 -19.26301,-1.90742 -3.528,4.90292 -2.67099,11.32199 -2.01301,16.89198 0.851,7.21501 0.28498,14.74103 0.28498,22.00003 -7.62902,-8.95102 -14.03902,-19.27703 -20.65599,-29 -3.13803,-4.61182 -6.022,-10.94041 -11.35903,-13.3434 -6.33097,-2.85082 -14.24198,0.30425 -15.70598,7.34419 -3.38502,16.26919 -0.27893,36.3632 -0.27893,52.99921 0,6.83497 -1.752,16.55799 0.742,22.99596 3.19801,8.25502 14.71498,9.24201 19.516,1.96003 3.00499,-4.55902 1.74199,-11.75599 1.74199,-16.95602 v -21 M 725.82691,291.17087 c -13.12842,3.60669 -9.00083,25.30056 -9.00083,35.42357 0,10.97998 -1.5614,23.45001 2.10731,33.99999 6.10152,17.54702 26.98931,25.13 43.89271,20.51002 29.313,-8.01301 24.99999,-37.863 24.99999,-61.50999 0,-9.32202 3.253,-28.62122 -11.00001,-28.8009 -6.28898,-0.0794 -10.74611,4.91558 -11.69518,10.80091 -2.2105,13.70599 -0.27629,29.11796 -0.30501,42.99997 -0.0151,8.28201 -5.30812,16.85998 -15,14.577 -16.63049,-3.91699 -9.97841,-39.63099 -9.99999,-52.57699 -0.0151,-8.12988 -3.59032,-18.2832 -13.99922,-15.42358 m 197.99921,-0.13682 c -22.95201,3.68811 -36.41102,35.8962 -12,48.43619 4.91599,2.52502 27.397,7.98602 26.36897,15.09501 -0.69498,4.80299 -7.75498,5.31598 -11.36897,4.7 -9.30402,-1.58601 -16.83001,-14.36599 -26.89202,-7.66201 -7.86599,5.24201 -4.60497,14.5 0.93502,19.898 8.76299,8.53701 22.92597,12.54902 34.957,10.654 26.22898,-4.13001 37.10498,-36.60299 12.99999,-51.84998 -6.225,-3.938 -13.292,-5.22202 -19.99899,-7.96902 -1.929,-0.79 -5.79402,-2.193 -5.79402,-4.79698 0,-3.70401 6.336,-3.96801 8.793,-3.602 8.17099,1.21901 15.58499,10.68601 23.89099,4.143 6.35301,-5.00402 4.761,-14.27548 -0.93497,-18.95669 -8.09802,-6.6553 -20.673,-9.74181 -30.956,-8.08952 m 64.00097,0.21695 c -12.31699,3.72918 -8.00099,24.46336 -8.00099,34.34338 0,10.39298 -1.903,22.968 1.04299,33 5.516,18.77998 26.99094,27.76498 44.95694,22.22597 28.487,-8.78298 25,-37.34298 25,-61.22597 0,-9.43801 2.489,-28.98359 -12,-28.80089 -5.13,0.0646 -9.841,3.72291 -10.772,8.80169 -2.527,13.79919 -0.1561,29.96419 -0.229,43.9992 -0.043,8.22898 -5.126,17.56498 -14.999,15.58998 -4.285,-0.857 -8.593,-4.26999 -9.682,-8.59101 -3.44998,-13.689 0.2838,-30.884 -0.3572,-44.99897 -0.3658,-8.0335 -5.46893,-17.21711 -14.95993,-14.34338 m 89.99993,-0.004 c -13.158,4.1472 -8.001,30.53619 -8.001,41.34719 0,11.561 -4.268,33.69199 1.179,43.957 5.404,10.18299 33.508,7.49998 42.821,4.44499 14.705,-4.82298 23.399,-20.47801 19.761,-35.40201 -1.33,-5.45597 -5.388,-9.73198 -6.734,-15 -1.781,-6.97198 2.42,-14.548 -0.1349,-21.99998 -6.152,-17.94008 -32.47,-22.5228 -48.891,-17.34719 m 14.999,31.3472 v -9 c 14.473,0.002 14.292,8.99799 0,9 m 0,36.99999 v -13.9998 c 4.255,0 9.943,-0.975 13.956,0.60303 5.443,2.14099 6.067,9.32798 0.935,12.218 -4.059,2.28597 -10.39,1.17899 -14.891,1.17899 m -260.99994,64.475 c 16.61099,-0.644 15.99999,18.1 15.99999,29.52498 v 66.99999 c 0,9.32602 -1.73,20.19602 8.01502,25.427 20.16299,10.826 19.582,-25.36097 38.98499,-23.31897 15.62998,1.64497 10.737,25.34998 27.99999,24.83297 17.47499,-0.52399 13.38701,-29.282 33.99999,-24.54697 13.70702,3.14899 9.75999,24.68897 26.00001,24.52199 16.99601,-0.17499 15.55299,-35.11302 36.95995,-23.343 14.099,7.75101 8.04,39.88898 8.04,53.42698 0,17.86802 0.791,35.74103 -4.746,53.00002 -10.779,33.593 -42.51694,57.469 -77.25397,60.82998 -51.30599,4.96502 -109.51499,-7.18001 -125.57197,-63.82998 -8.09499,-28.56102 -3.428,-62.53399 -3.428,-92.00002 v -85.99997 c 0,-11.036 0.32391,-24.95702 15,-25.525 z"
     id="path2858" /></g></svg>
